<?xml version="1.0" encoding="UTF-8" standalone="no"?>
<!DOCTYPE svg PUBLIC "-//W3C//DTD SVG 1.1//EN"
 "http://www.w3.org/Graphics/SVG/1.1/DTD/svg11.dtd">
<!-- Generated by graphviz version 2.43.0 (0)
 -->
<!-- Title: G Pages: 1 -->
<svg width="1763pt" height="451pt"
 viewBox="0.00 0.00 1763.02 451.04" xmlns="http://www.w3.org/2000/svg" xmlns:xlink="http://www.w3.org/1999/xlink">
<g id="graph0" class="graph" transform="scale(1 1) rotate(0) translate(4 447.04)">
<title>G</title><style>.edge>path:hover{stroke-width:8}</style>
<polygon fill="white" stroke="transparent" points="-4,4 -4,-447.04 1759.02,-447.04 1759.02,4 -4,4"/>
<!-- mypackage -->
<g id="node1" class="node">
<title>mypackage</title><style>.edge>path:hover{stroke-width:8}</style>
<ellipse fill="#b65353" stroke="black" cx="546.42" cy="-296.74" rx="42.94" ry="18"/>
<text text-anchor="middle" x="546.42" y="-294.24" font-family="Helvetica,sans-Serif" font-size="10.00" fill="#ffffff">mypackage</text>
</g>
<!-- src_main -->
<g id="node4" class="node">
<title>src_main</title><style>.edge>path:hover{stroke-width:8}</style>
<ellipse fill="#46a4a4" stroke="black" cx="702.42" cy="-111.98" rx="34.96" ry="18"/>
<text text-anchor="middle" x="702.42" y="-109.48" font-family="Helvetica,sans-Serif" font-size="10.00" fill="#000000">src.main</text>
</g>
<!-- mypackage&#45;&gt;src_main -->
<g id="edge1" class="edge">
<title>mypackage&#45;&gt;src_main</title><style>.edge>path:hover{stroke-width:8}</style>
<path fill="none" stroke="black" d="M567.5,-280.87C576.89,-274.34 588.13,-266.66 598.42,-259.97 643.9,-230.36 689.72,-248.74 702.42,-195.97"/>
<path fill="none" stroke="black" d="M702.42,-193.97C706.64,-176.42 706.63,-156.11 705.57,-140.22"/>
<polygon fill="#b65353" stroke="black" points="709.03,-139.68 704.7,-130.01 702.06,-140.27 709.03,-139.68"/>
</g>
<!-- mypackage_utils -->
<g id="node2" class="node">
<title>mypackage_utils</title><style>.edge>path:hover{stroke-width:8}</style>
<ellipse fill="#b65353" stroke="black" cx="661.42" cy="-296.74" rx="53.98" ry="21.43"/>
<text text-anchor="middle" x="661.42" y="-299.74" font-family="Helvetica,sans-Serif" font-size="10.00" fill="#ffffff">mypackage.</text>
<text text-anchor="middle" x="661.42" y="-288.74" font-family="Helvetica,sans-Serif" font-size="10.00" fill="#ffffff">utils</text>
</g>
<!-- mypackage_utils&#45;&gt;src_main -->
<g id="edge2" class="edge">
<title>mypackage_utils&#45;&gt;src_main</title><style>.edge>path:hover{stroke-width:8}</style>
<path fill="none" stroke="black" d="M671.8,-275.72C681.5,-256 695.49,-224.74 702.42,-195.97"/>
</g>
<!-- mypackage_utils_move_files -->
<g id="node3" class="node">
<title>mypackage_utils_move_files</title><style>.edge>path:hover{stroke-width:8}</style>
<ellipse fill="#b65353" stroke="black" cx="743.42" cy="-406.27" rx="53.98" ry="28.98"/>
<text text-anchor="middle" x="743.42" y="-414.77" font-family="Helvetica,sans-Serif" font-size="10.00" fill="#ffffff">mypackage.</text>
<text text-anchor="middle" x="743.42" y="-403.77" font-family="Helvetica,sans-Serif" font-size="10.00" fill="#ffffff">utils.</text>
<text text-anchor="middle" x="743.42" y="-392.77" font-family="Helvetica,sans-Serif" font-size="10.00" fill="#ffffff">move_files</text>
</g>
<!-- mypackage_utils_move_files&#45;&gt;src_main -->
<g id="edge3" class="edge">
<title>mypackage_utils_move_files&#45;&gt;src_main</title><style>.edge>path:hover{stroke-width:8}</style>
<path fill="none" stroke="black" d="M741.42,-377.12C738.94,-347.62 733.84,-300.09 724.42,-259.97 717.54,-230.69 695.38,-225.21 702.42,-195.97"/>
</g>
<!-- src_mypackage -->
<g id="node5" class="node">
<title>src_mypackage</title><style>.edge>path:hover{stroke-width:8}</style>
<ellipse fill="#10f9f9" stroke="black" cx="1047.42" cy="-194.97" rx="52.96" ry="18"/>
<text text-anchor="middle" x="1047.42" y="-192.47" font-family="Helvetica,sans-Serif" font-size="10.00" fill="#000000">src.mypackage</text>
</g>
<!-- src_tests_test_block_to_block_type -->
<g id="node10" class="node">
<title>src_tests_test_block_to_block_type</title><style>.edge>path:hover{stroke-width:8}</style>
<ellipse fill="#49acac" stroke="black" cx="259.42" cy="-28.99" rx="98.99" ry="28.98"/>
<text text-anchor="middle" x="259.42" y="-37.49" font-family="Helvetica,sans-Serif" font-size="10.00" fill="#000000">src.</text>
<text text-anchor="middle" x="259.42" y="-26.49" font-family="Helvetica,sans-Serif" font-size="10.00" fill="#000000">tests.</text>
<text text-anchor="middle" x="259.42" y="-15.49" font-family="Helvetica,sans-Serif" font-size="10.00" fill="#000000">test_block_to_block_type</text>
</g>
<!-- src_mypackage&#45;&gt;src_tests_test_block_to_block_type -->
<g id="edge4" class="edge">
<title>src_mypackage&#45;&gt;src_tests_test_block_to_block_type</title><style>.edge>path:hover{stroke-width:8}</style>
<path fill="none" stroke="black" d="M765.42,-110.98C756.43,-104.08 756.8,-98.52 746.42,-93.98 591.39,-26.18 534.06,-87.3 367.42,-57.98 358.07,-56.34 348.35,-54.3 338.74,-52.08"/>
<polygon fill="#10f9f9" stroke="black" points="339.32,-48.62 328.78,-49.7 337.69,-55.42 339.32,-48.62"/>
</g>
<!-- src_tests_test_generate_page -->
<g id="node11" class="node">
<title>src_tests_test_generate_page</title><style>.edge>path:hover{stroke-width:8}</style>
<ellipse fill="#49acac" stroke="black" cx="456.42" cy="-28.99" rx="79.81" ry="28.98"/>
<text text-anchor="middle" x="456.42" y="-37.49" font-family="Helvetica,sans-Serif" font-size="10.00" fill="#000000">src.</text>
<text text-anchor="middle" x="456.42" y="-26.49" font-family="Helvetica,sans-Serif" font-size="10.00" fill="#000000">tests.</text>
<text text-anchor="middle" x="456.42" y="-15.49" font-family="Helvetica,sans-Serif" font-size="10.00" fill="#000000">test_generate_page</text>
</g>
<!-- src_mypackage&#45;&gt;src_tests_test_generate_page -->
<g id="edge5" class="edge">
<title>src_mypackage&#45;&gt;src_tests_test_generate_page</title><style>.edge>path:hover{stroke-width:8}</style>
<path fill="none" stroke="black" d="M765.42,-110.98C756.43,-104.08 756.6,-98.95 746.42,-93.98 664.84,-54.22 633.55,-79.64 545.42,-57.98 538.39,-56.26 531.1,-54.28 523.86,-52.19"/>
<polygon fill="#10f9f9" stroke="black" points="524.63,-48.77 514.04,-49.29 522.64,-55.48 524.63,-48.77"/>
</g>
<!-- src_tests_test_html_node -->
<g id="node12" class="node">
<title>src_tests_test_html_node</title><style>.edge>path:hover{stroke-width:8}</style>
<ellipse fill="#49acac" stroke="black" cx="619.42" cy="-28.99" rx="65.11" ry="28.98"/>
<text text-anchor="middle" x="619.42" y="-37.49" font-family="Helvetica,sans-Serif" font-size="10.00" fill="#000000">src.</text>
<text text-anchor="middle" x="619.42" y="-26.49" font-family="Helvetica,sans-Serif" font-size="10.00" fill="#000000">tests.</text>
<text text-anchor="middle" x="619.42" y="-15.49" font-family="Helvetica,sans-Serif" font-size="10.00" fill="#000000">test_html_node</text>
</g>
<!-- src_mypackage&#45;&gt;src_tests_test_html_node -->
<g id="edge6" class="edge">
<title>src_mypackage&#45;&gt;src_tests_test_html_node</title><style>.edge>path:hover{stroke-width:8}</style>
<path fill="none" stroke="black" d="M765.42,-110.98C756.43,-104.08 755.78,-100.37 746.42,-93.98 724.09,-78.77 697.65,-64.87 674.69,-53.94"/>
<polygon fill="#10f9f9" stroke="black" points="675.96,-50.67 665.42,-49.59 672.99,-57.01 675.96,-50.67"/>
</g>
<!-- src_tests_test_leaf_node -->
<g id="node13" class="node">
<title>src_tests_test_leaf_node</title><style>.edge>path:hover{stroke-width:8}</style>
<ellipse fill="#49acac" stroke="black" cx="765.42" cy="-28.99" rx="62.87" ry="28.98"/>
<text text-anchor="middle" x="765.42" y="-37.49" font-family="Helvetica,sans-Serif" font-size="10.00" fill="#000000">src.</text>
<text text-anchor="middle" x="765.42" y="-26.49" font-family="Helvetica,sans-Serif" font-size="10.00" fill="#000000">tests.</text>
<text text-anchor="middle" x="765.42" y="-15.49" font-family="Helvetica,sans-Serif" font-size="10.00" fill="#000000">test_leaf_node</text>
</g>
<!-- src_mypackage&#45;&gt;src_tests_test_leaf_node -->
<g id="edge7" class="edge">
<title>src_mypackage&#45;&gt;src_tests_test_leaf_node</title><style>.edge>path:hover{stroke-width:8}</style>
<path fill="none" stroke="black" d="M765.42,-110.98C752.7,-101.21 751.32,-84.08 753.69,-68.08"/>
<polygon fill="#10f9f9" stroke="black" points="757.21,-68.3 755.71,-57.82 750.34,-66.95 757.21,-68.3"/>
</g>
<!-- src_tests_test_markdown_to_blocks -->
<g id="node14" class="node">
<title>src_tests_test_markdown_to_blocks</title><style>.edge>path:hover{stroke-width:8}</style>
<ellipse fill="#49acac" stroke="black" cx="1194.42" cy="-28.99" rx="101.65" ry="28.98"/>
<text text-anchor="middle" x="1194.42" y="-37.49" font-family="Helvetica,sans-Serif" font-size="10.00" fill="#000000">src.</text>
<text text-anchor="middle" x="1194.42" y="-26.49" font-family="Helvetica,sans-Serif" font-size="10.00" fill="#000000">tests.</text>
<text text-anchor="middle" x="1194.42" y="-15.49" font-family="Helvetica,sans-Serif" font-size="10.00" fill="#000000">test_markdown_to_blocks</text>
</g>
<!-- src_mypackage&#45;&gt;src_tests_test_markdown_to_blocks -->
<g id="edge8" class="edge">
<title>src_mypackage&#45;&gt;src_tests_test_markdown_to_blocks</title><style>.edge>path:hover{stroke-width:8}</style>
<path fill="none" stroke="black" d="M765.42,-110.98C651.8,-23.68 943.17,-87.3 1083.42,-57.98 1092.59,-56.07 1102.14,-53.91 1111.63,-51.66"/>
<polygon fill="#10f9f9" stroke="black" points="1112.57,-55.03 1121.47,-49.29 1110.93,-48.23 1112.57,-55.03"/>
</g>
<!-- src_tests_test_parent_node -->
<g id="node15" class="node">
<title>src_tests_test_parent_node</title><style>.edge>path:hover{stroke-width:8}</style>
<ellipse fill="#49acac" stroke="black" cx="71.42" cy="-28.99" rx="71.34" ry="28.98"/>
<text text-anchor="middle" x="71.42" y="-37.49" font-family="Helvetica,sans-Serif" font-size="10.00" fill="#000000">src.</text>
<text text-anchor="middle" x="71.42" y="-26.49" font-family="Helvetica,sans-Serif" font-size="10.00" fill="#000000">tests.</text>
<text text-anchor="middle" x="71.42" y="-15.49" font-family="Helvetica,sans-Serif" font-size="10.00" fill="#000000">test_parent_node</text>
</g>
<!-- src_mypackage&#45;&gt;src_tests_test_parent_node -->
<g id="edge9" class="edge">
<title>src_mypackage&#45;&gt;src_tests_test_parent_node</title><style>.edge>path:hover{stroke-width:8}</style>
<path fill="none" stroke="black" d="M996.04,-190.5C935.31,-184.04 833.88,-165.59 765.42,-112.98"/>
<path fill="none" stroke="black" d="M765.42,-110.98C756.43,-104.08 756.88,-98.34 746.42,-93.98 624.16,-42.99 281.28,-84.11 151.42,-57.98 144.83,-56.66 138.04,-54.91 131.34,-52.94"/>
<polygon fill="#10f9f9" stroke="black" points="132.2,-49.54 121.61,-49.91 130.12,-56.23 132.2,-49.54"/>
</g>
<!-- src_tests_test_split_delimiter -->
<g id="node16" class="node">
<title>src_tests_test_split_delimiter</title><style>.edge>path:hover{stroke-width:8}</style>
<ellipse fill="#439d9d" stroke="black" cx="1392.42" cy="-28.99" rx="78.48" ry="28.98"/>
<text text-anchor="middle" x="1392.42" y="-37.49" font-family="Helvetica,sans-Serif" font-size="10.00" fill="#000000">src.</text>
<text text-anchor="middle" x="1392.42" y="-26.49" font-family="Helvetica,sans-Serif" font-size="10.00" fill="#000000">tests.</text>
<text text-anchor="middle" x="1392.42" y="-15.49" font-family="Helvetica,sans-Serif" font-size="10.00" fill="#000000">test_split_delimiter</text>
</g>
<!-- src_mypackage&#45;&gt;src_tests_test_split_delimiter -->
<g id="edge10" class="edge">
<title>src_mypackage&#45;&gt;src_tests_test_split_delimiter</title><style>.edge>path:hover{stroke-width:8}</style>
<path fill="none" stroke="black" d="M765.42,-110.98C669.81,-37.51 1187.36,-82.48 1305.42,-57.98 1312.57,-56.5 1319.97,-54.64 1327.29,-52.59"/>
<polygon fill="#10f9f9" stroke="black" points="1328.58,-55.87 1337.2,-49.7 1326.62,-49.15 1328.58,-55.87"/>
</g>
<!-- src_tests_test_split_nodes_image_and_link -->
<g id="node17" class="node">
<title>src_tests_test_split_nodes_image_and_link</title><style>.edge>path:hover{stroke-width:8}</style>
<ellipse fill="#439d9d" stroke="black" cx="1615.42" cy="-28.99" rx="126.64" ry="28.98"/>
<text text-anchor="middle" x="1615.42" y="-37.49" font-family="Helvetica,sans-Serif" font-size="10.00" fill="#000000">src.</text>
<text text-anchor="middle" x="1615.42" y="-26.49" font-family="Helvetica,sans-Serif" font-size="10.00" fill="#000000">tests.</text>
<text text-anchor="middle" x="1615.42" y="-15.49" font-family="Helvetica,sans-Serif" font-size="10.00" fill="#000000">test_split_nodes_image_and_link</text>
</g>
<!-- src_mypackage&#45;&gt;src_tests_test_split_nodes_image_and_link -->
<g id="edge11" class="edge">
<title>src_mypackage&#45;&gt;src_tests_test_split_nodes_image_and_link</title><style>.edge>path:hover{stroke-width:8}</style>
<path fill="none" stroke="black" d="M1086.46,-182.7C1177.12,-156.53 1403.67,-91.12 1528.87,-54.98"/>
<polygon fill="#10f9f9" stroke="black" points="1530.18,-58.24 1538.82,-52.11 1528.24,-51.52 1530.18,-58.24"/>
</g>
<!-- src_tests_test_text_node_to_html_node -->
<g id="node18" class="node">
<title>src_tests_test_text_node_to_html_node</title><style>.edge>path:hover{stroke-width:8}</style>
<ellipse fill="#49acac" stroke="black" cx="960.42" cy="-28.99" rx="113.69" ry="28.98"/>
<text text-anchor="middle" x="960.42" y="-37.49" font-family="Helvetica,sans-Serif" font-size="10.00" fill="#000000">src.</text>
<text text-anchor="middle" x="960.42" y="-26.49" font-family="Helvetica,sans-Serif" font-size="10.00" fill="#000000">tests.</text>
<text text-anchor="middle" x="960.42" y="-15.49" font-family="Helvetica,sans-Serif" font-size="10.00" fill="#000000">test_text_node_to_html_node</text>
</g>
<!-- src_mypackage&#45;&gt;src_tests_test_text_node_to_html_node -->
<g id="edge12" class="edge">
<title>src_mypackage&#45;&gt;src_tests_test_text_node_to_html_node</title><style>.edge>path:hover{stroke-width:8}</style>
<path fill="none" stroke="black" d="M765.42,-110.98C744.14,-94.63 810.99,-70.49 872.12,-52.82"/>
<polygon fill="#10f9f9" stroke="black" points="873.21,-56.15 881.87,-50.04 871.29,-49.42 873.21,-56.15"/>
</g>
<!-- src_mypackage_utils -->
<g id="node6" class="node">
<title>src_mypackage_utils</title><style>.edge>path:hover{stroke-width:8}</style>
<ellipse fill="#2fdbdb" stroke="black" cx="1563.42" cy="-194.97" rx="53.98" ry="28.98"/>
<text text-anchor="middle" x="1563.42" y="-203.47" font-family="Helvetica,sans-Serif" font-size="10.00" fill="#000000">src.</text>
<text text-anchor="middle" x="1563.42" y="-192.47" font-family="Helvetica,sans-Serif" font-size="10.00" fill="#000000">mypackage.</text>
<text text-anchor="middle" x="1563.42" y="-181.47" font-family="Helvetica,sans-Serif" font-size="10.00" fill="#000000">utils</text>
</g>
<!-- src_mypackage_utils&#45;&gt;src_tests_test_split_delimiter -->
<g id="edge13" class="edge">
<title>src_mypackage_utils&#45;&gt;src_tests_test_split_delimiter</title><style>.edge>path:hover{stroke-width:8}</style>
<path fill="none" stroke="black" d="M1577.99,-167C1584.69,-151.26 1590.19,-131.01 1585.42,-112.98"/>
<path fill="none" stroke="black" d="M1585.42,-110.98C1581.86,-97.54 1513.57,-71.22 1459.22,-52.23"/>
<polygon fill="#2fdbdb" stroke="black" points="1460.19,-48.86 1449.59,-48.89 1457.89,-55.47 1460.19,-48.86"/>
</g>
<!-- src_mypackage_utils&#45;&gt;src_tests_test_split_nodes_image_and_link -->
<g id="edge14" class="edge">
<title>src_mypackage_utils&#45;&gt;src_tests_test_split_nodes_image_and_link</title><style>.edge>path:hover{stroke-width:8}</style>
<path fill="none" stroke="black" d="M1585.42,-110.98C1581.52,-96.26 1585.44,-80.47 1591.58,-66.78"/>
<polygon fill="#2fdbdb" stroke="black" points="1594.79,-68.19 1596.13,-57.68 1588.53,-65.06 1594.79,-68.19"/>
</g>
<!-- src_mypackage_utils_extract_links -->
<g id="node7" class="node">
<title>src_mypackage_utils_extract_links</title><style>.edge>path:hover{stroke-width:8}</style>
<ellipse fill="#47c2c2" stroke="black" cx="1645.42" cy="-406.27" rx="56.64" ry="36.54"/>
<text text-anchor="middle" x="1645.42" y="-420.27" font-family="Helvetica,sans-Serif" font-size="10.00" fill="#000000">src.</text>
<text text-anchor="middle" x="1645.42" y="-409.27" font-family="Helvetica,sans-Serif" font-size="10.00" fill="#000000">mypackage.</text>
<text text-anchor="middle" x="1645.42" y="-398.27" font-family="Helvetica,sans-Serif" font-size="10.00" fill="#000000">utils.</text>
<text text-anchor="middle" x="1645.42" y="-387.27" font-family="Helvetica,sans-Serif" font-size="10.00" fill="#000000">extract_links</text>
</g>
<!-- src_mypackage_utils_split_nodes_image_and_link -->
<g id="node9" class="node">
<title>src_mypackage_utils_split_nodes_image_and_link</title><style>.edge>path:hover{stroke-width:8}</style>
<ellipse fill="#38a8a8" stroke="black" cx="1645.42" cy="-296.74" rx="109.7" ry="36.54"/>
<text text-anchor="middle" x="1645.42" y="-310.74" font-family="Helvetica,sans-Serif" font-size="10.00" fill="#000000">src.</text>
<text text-anchor="middle" x="1645.42" y="-299.74" font-family="Helvetica,sans-Serif" font-size="10.00" fill="#000000">mypackage.</text>
<text text-anchor="middle" x="1645.42" y="-288.74" font-family="Helvetica,sans-Serif" font-size="10.00" fill="#000000">utils.</text>
<text text-anchor="middle" x="1645.42" y="-277.74" font-family="Helvetica,sans-Serif" font-size="10.00" fill="#000000">split_nodes_image_and_link</text>
</g>
<!-- src_mypackage_utils_extract_links&#45;&gt;src_mypackage_utils_split_nodes_image_and_link -->
<g id="edge15" class="edge">
<title>src_mypackage_utils_extract_links&#45;&gt;src_mypackage_utils_split_nodes_image_and_link</title><style>.edge>path:hover{stroke-width:8}</style>
<path fill="none" stroke="black" d="M1645.42,-369.47C1645.42,-361.3 1645.42,-352.51 1645.42,-343.98"/>
<polygon fill="#47c2c2" stroke="black" points="1648.92,-343.75 1645.42,-333.75 1641.92,-343.75 1648.92,-343.75"/>
</g>
<!-- src_mypackage_utils_split_delimiter -->
<g id="node8" class="node">
<title>src_mypackage_utils_split_delimiter</title><style>.edge>path:hover{stroke-width:8}</style>
<ellipse fill="#3db8b8" stroke="black" cx="1392.42" cy="-296.74" rx="61.54" ry="36.54"/>
<text text-anchor="middle" x="1392.42" y="-310.74" font-family="Helvetica,sans-Serif" font-size="10.00" fill="#000000">src.</text>
<text text-anchor="middle" x="1392.42" y="-299.74" font-family="Helvetica,sans-Serif" font-size="10.00" fill="#000000">mypackage.</text>
<text text-anchor="middle" x="1392.42" y="-288.74" font-family="Helvetica,sans-Serif" font-size="10.00" fill="#000000">utils.</text>
<text text-anchor="middle" x="1392.42" y="-277.74" font-family="Helvetica,sans-Serif" font-size="10.00" fill="#000000">split_delimiter</text>
</g>
<!-- src_mypackage_utils_split_delimiter&#45;&gt;src_tests_test_split_delimiter -->
<g id="edge16" class="edge">
<title>src_mypackage_utils_split_delimiter&#45;&gt;src_tests_test_split_delimiter</title><style>.edge>path:hover{stroke-width:8}</style>
<path fill="none" stroke="black" d="M1392.42,-259.9C1392.42,-209.79 1392.42,-119.22 1392.42,-67.99"/>
<polygon fill="#3db8b8" stroke="black" points="1395.92,-67.99 1392.42,-57.99 1388.92,-67.99 1395.92,-67.99"/>
</g>
<!-- src_mypackage_utils_split_nodes_image_and_link&#45;&gt;src_tests_test_split_nodes_image_and_link -->
<g id="edge17" class="edge">
<title>src_mypackage_utils_split_nodes_image_and_link&#45;&gt;src_tests_test_split_nodes_image_and_link</title><style>.edge>path:hover{stroke-width:8}</style>
<path fill="none" stroke="black" d="M1641.37,-259.9C1635.72,-209.79 1625.49,-119.22 1619.71,-67.99"/>
<polygon fill="#38a8a8" stroke="black" points="1623.18,-67.53 1618.58,-57.99 1616.22,-68.32 1623.18,-67.53"/>
</g>
</g>
</svg>
